<svg width="284" height="48" viewBox="0 0 284 48" fill="none" xmlns="http://www.w3.org/2000/svg">
<g filter="url(#filter0_b_30_7)">
<path d="M0 24C0 10.7452 10.7452 0 24 0H260C273.255 0 284 10.7452 284 24C284 37.2548 273.255 48 260 48H24C10.7452 48 0 37.2548 0 24Z" fill="#D45757"/>
<path d="M0.5 24C0.5 11.0213 11.0213 0.5 24 0.5H260C272.979 0.5 283.5 11.0213 283.5 24C283.5 36.9787 272.979 47.5 260 47.5H24C11.0213 47.5 0.5 36.9787 0.5 24Z" stroke="black"/>
</g>
<path d="M141.556 9C167.056 9 113.056 25 141.556 25C170.056 25 114.056 39 141.556 39" stroke="black"/>
<defs>
<filter id="filter0_b_30_7" x="-4" y="-4" width="292" height="56" filterUnits="userSpaceOnUse" color-interpolation-filters="sRGB">
<feFlood flood-opacity="0" result="BackgroundImageFix"/>
<feGaussianBlur in="BackgroundImageFix" stdDeviation="2"/>
<feComposite in2="SourceAlpha" operator="in" result="effect1_backgroundBlur_30_7"/>
<feBlend mode="normal" in="SourceGraphic" in2="effect1_backgroundBlur_30_7" result="shape"/>
</filter>
</defs>
</svg>
